<mxfile host="app.diagrams.net" agent="Mozilla/5.0 (Windows NT 10.0; Win64; x64) AppleWebKit/537.36 (KHTML, like Gecko) Chrome/131.0.0.0 Safari/537.36 Edg/131.0.0.0" version="25.0.3">
  <diagram name="Pagina-1" id="67l53lb5YFYGZecQVTXb">
    <mxGraphModel dx="1482" dy="1745" grid="1" gridSize="10" guides="1" tooltips="1" connect="1" arrows="1" fold="1" page="1" pageScale="1" pageWidth="827" pageHeight="1169" math="0" shadow="0">
      <root>
        <mxCell id="0" />
        <mxCell id="1" parent="0" />
        <mxCell id="PFFg62EAD7WfUakyWB93-1" value="IA" style="swimlane;fontStyle=0;childLayout=stackLayout;horizontal=1;startSize=30;horizontalStack=0;resizeParent=1;resizeParentMax=0;resizeLast=0;collapsible=1;marginBottom=0;whiteSpace=wrap;html=1;" parent="1" vertex="1">
          <mxGeometry x="600" y="-10" width="250" height="150" as="geometry" />
        </mxCell>
        <mxCell id="PFFg62EAD7WfUakyWB93-11" value="-livelloDifficolta: int" style="text;strokeColor=none;fillColor=none;align=left;verticalAlign=middle;spacingLeft=4;spacingRight=4;overflow=hidden;points=[[0,0.5],[1,0.5]];portConstraint=eastwest;rotatable=0;whiteSpace=wrap;html=1;" parent="PFFg62EAD7WfUakyWB93-1" vertex="1">
          <mxGeometry y="30" width="250" height="30" as="geometry" />
        </mxCell>
        <mxCell id="PFFg62EAD7WfUakyWB93-10" value="-strategia: String" style="text;strokeColor=none;fillColor=none;align=left;verticalAlign=middle;spacingLeft=4;spacingRight=4;overflow=hidden;points=[[0,0.5],[1,0.5]];portConstraint=eastwest;rotatable=0;whiteSpace=wrap;html=1;" parent="PFFg62EAD7WfUakyWB93-1" vertex="1">
          <mxGeometry y="60" width="250" height="30" as="geometry" />
        </mxCell>
        <mxCell id="PFFg62EAD7WfUakyWB93-37" value="" style="swimlane;fontStyle=0;childLayout=stackLayout;horizontal=1;startSize=30;horizontalStack=0;resizeParent=1;resizeParentMax=0;resizeLast=0;collapsible=1;marginBottom=0;whiteSpace=wrap;html=1;" parent="PFFg62EAD7WfUakyWB93-1" vertex="1">
          <mxGeometry y="90" width="250" height="60" as="geometry" />
        </mxCell>
        <mxCell id="PFFg62EAD7WfUakyWB93-19" value="+calcolaMossa(Griglia): int" style="text;strokeColor=default;fillColor=none;align=left;verticalAlign=middle;spacingLeft=4;spacingRight=4;overflow=hidden;points=[[0,0.5],[1,0.5]];portConstraint=eastwest;rotatable=0;whiteSpace=wrap;html=1;" parent="PFFg62EAD7WfUakyWB93-37" vertex="1">
          <mxGeometry y="30" width="250" height="30" as="geometry" />
        </mxCell>
        <mxCell id="PFFg62EAD7WfUakyWB93-13" value="Giocatore" style="swimlane;fontStyle=0;childLayout=stackLayout;horizontal=1;startSize=30;horizontalStack=0;resizeParent=1;resizeParentMax=0;resizeLast=0;collapsible=1;marginBottom=0;whiteSpace=wrap;html=1;" parent="1" vertex="1">
          <mxGeometry x="160" y="270" width="240" height="210" as="geometry" />
        </mxCell>
        <mxCell id="PFFg62EAD7WfUakyWB93-18" value="-nome: String" style="text;strokeColor=none;fillColor=none;align=left;verticalAlign=middle;spacingLeft=4;spacingRight=4;overflow=hidden;points=[[0,0.5],[1,0.5]];portConstraint=eastwest;rotatable=0;whiteSpace=wrap;html=1;" parent="PFFg62EAD7WfUakyWB93-13" vertex="1">
          <mxGeometry y="30" width="240" height="30" as="geometry" />
        </mxCell>
        <mxCell id="PFFg62EAD7WfUakyWB93-14" value="-griglia: Griglia" style="text;strokeColor=none;fillColor=none;align=left;verticalAlign=middle;spacingLeft=4;spacingRight=4;overflow=hidden;points=[[0,0.5],[1,0.5]];portConstraint=eastwest;rotatable=0;whiteSpace=wrap;html=1;" parent="PFFg62EAD7WfUakyWB93-13" vertex="1">
          <mxGeometry y="60" width="240" height="30" as="geometry" />
        </mxCell>
        <mxCell id="PFFg62EAD7WfUakyWB93-15" value="-numeroVittorie: int" style="text;strokeColor=none;fillColor=none;align=left;verticalAlign=middle;spacingLeft=4;spacingRight=4;overflow=hidden;points=[[0,0.5],[1,0.5]];portConstraint=eastwest;rotatable=0;whiteSpace=wrap;html=1;" parent="PFFg62EAD7WfUakyWB93-13" vertex="1">
          <mxGeometry y="90" width="240" height="30" as="geometry" />
        </mxCell>
        <mxCell id="PFFg62EAD7WfUakyWB93-41" value="" style="swimlane;fontStyle=0;childLayout=stackLayout;horizontal=1;startSize=30;horizontalStack=0;resizeParent=1;resizeParentMax=0;resizeLast=0;collapsible=1;marginBottom=0;whiteSpace=wrap;html=1;" parent="PFFg62EAD7WfUakyWB93-13" vertex="1">
          <mxGeometry y="120" width="240" height="90" as="geometry" />
        </mxCell>
        <mxCell id="PFFg62EAD7WfUakyWB93-44" value="+posizionaNave(Nave, int, int, String): void" style="text;strokeColor=none;fillColor=none;align=left;verticalAlign=middle;spacingLeft=4;spacingRight=4;overflow=hidden;points=[[0,0.5],[1,0.5]];portConstraint=eastwest;rotatable=0;whiteSpace=wrap;html=1;" parent="PFFg62EAD7WfUakyWB93-41" vertex="1">
          <mxGeometry y="30" width="240" height="30" as="geometry" />
        </mxCell>
        <mxCell id="PFFg62EAD7WfUakyWB93-45" value="+spara(int, int): void" style="text;strokeColor=none;fillColor=none;align=left;verticalAlign=middle;spacingLeft=4;spacingRight=4;overflow=hidden;points=[[0,0.5],[1,0.5]];portConstraint=eastwest;rotatable=0;whiteSpace=wrap;html=1;" parent="PFFg62EAD7WfUakyWB93-41" vertex="1">
          <mxGeometry y="60" width="240" height="30" as="geometry" />
        </mxCell>
        <mxCell id="PFFg62EAD7WfUakyWB93-46" value="Nave" style="swimlane;fontStyle=0;childLayout=stackLayout;horizontal=1;startSize=30;horizontalStack=0;resizeParent=1;resizeParentMax=0;resizeLast=0;collapsible=1;marginBottom=0;whiteSpace=wrap;html=1;" parent="1" vertex="1">
          <mxGeometry x="570" y="640" width="270" height="540" as="geometry">
            <mxRectangle x="570" y="640" width="70" height="30" as="alternateBounds" />
          </mxGeometry>
        </mxCell>
        <mxCell id="PFFg62EAD7WfUakyWB93-142" value="-nome: String" style="text;strokeColor=none;fillColor=none;align=left;verticalAlign=middle;spacingLeft=4;spacingRight=4;overflow=hidden;points=[[0,0.5],[1,0.5]];portConstraint=eastwest;rotatable=0;whiteSpace=wrap;html=1;" parent="PFFg62EAD7WfUakyWB93-46" vertex="1">
          <mxGeometry y="30" width="270" height="30" as="geometry" />
        </mxCell>
        <mxCell id="PFFg62EAD7WfUakyWB93-149" value="-lunghezza: int" style="text;strokeColor=none;fillColor=none;align=left;verticalAlign=middle;spacingLeft=4;spacingRight=4;overflow=hidden;points=[[0,0.5],[1,0.5]];portConstraint=eastwest;rotatable=0;whiteSpace=wrap;html=1;" parent="PFFg62EAD7WfUakyWB93-46" vertex="1">
          <mxGeometry y="60" width="270" height="30" as="geometry" />
        </mxCell>
        <mxCell id="PFFg62EAD7WfUakyWB93-49" value="-stato: boolean[]" style="text;strokeColor=none;fillColor=none;align=left;verticalAlign=middle;spacingLeft=4;spacingRight=4;overflow=hidden;points=[[0,0.5],[1,0.5]];portConstraint=eastwest;rotatable=0;whiteSpace=wrap;html=1;" parent="PFFg62EAD7WfUakyWB93-46" vertex="1">
          <mxGeometry y="90" width="270" height="30" as="geometry" />
        </mxCell>
        <mxCell id="Ei9wnKq6K-vs5kYd-QN4-1" value="-affondata: boolean" style="text;strokeColor=none;fillColor=none;align=left;verticalAlign=middle;spacingLeft=4;spacingRight=4;overflow=hidden;points=[[0,0.5],[1,0.5]];portConstraint=eastwest;rotatable=0;whiteSpace=wrap;html=1;" vertex="1" parent="PFFg62EAD7WfUakyWB93-46">
          <mxGeometry y="120" width="270" height="30" as="geometry" />
        </mxCell>
        <mxCell id="Ei9wnKq6K-vs5kYd-QN4-2" value="-x: int" style="text;strokeColor=none;fillColor=none;align=left;verticalAlign=middle;spacingLeft=4;spacingRight=4;overflow=hidden;points=[[0,0.5],[1,0.5]];portConstraint=eastwest;rotatable=0;whiteSpace=wrap;html=1;" vertex="1" parent="PFFg62EAD7WfUakyWB93-46">
          <mxGeometry y="150" width="270" height="30" as="geometry" />
        </mxCell>
        <mxCell id="Ei9wnKq6K-vs5kYd-QN4-4" value="-y&lt;span style=&quot;background-color: initial;&quot;&gt;: int&lt;/span&gt;" style="text;strokeColor=none;fillColor=none;align=left;verticalAlign=middle;spacingLeft=4;spacingRight=4;overflow=hidden;points=[[0,0.5],[1,0.5]];portConstraint=eastwest;rotatable=0;whiteSpace=wrap;html=1;" vertex="1" parent="PFFg62EAD7WfUakyWB93-46">
          <mxGeometry y="180" width="270" height="30" as="geometry" />
        </mxCell>
        <mxCell id="Ei9wnKq6K-vs5kYd-QN4-3" value="-orientamento&lt;span style=&quot;background-color: initial;&quot;&gt;: PuntiCardinali&lt;/span&gt;" style="text;strokeColor=none;fillColor=none;align=left;verticalAlign=middle;spacingLeft=4;spacingRight=4;overflow=hidden;points=[[0,0.5],[1,0.5]];portConstraint=eastwest;rotatable=0;whiteSpace=wrap;html=1;" vertex="1" parent="PFFg62EAD7WfUakyWB93-46">
          <mxGeometry y="210" width="270" height="30" as="geometry" />
        </mxCell>
        <mxCell id="PFFg62EAD7WfUakyWB93-50" value="" style="swimlane;fontStyle=0;childLayout=stackLayout;horizontal=1;startSize=30;horizontalStack=0;resizeParent=1;resizeParentMax=0;resizeLast=0;collapsible=1;marginBottom=0;whiteSpace=wrap;html=1;" parent="PFFg62EAD7WfUakyWB93-46" vertex="1">
          <mxGeometry y="240" width="270" height="300" as="geometry">
            <mxRectangle y="150" width="220" height="40" as="alternateBounds" />
          </mxGeometry>
        </mxCell>
        <mxCell id="PFFg62EAD7WfUakyWB93-51" value="+Nave(String, int, int, int, PuntiCardinali)" style="text;strokeColor=none;fillColor=none;align=left;verticalAlign=middle;spacingLeft=4;spacingRight=4;overflow=hidden;points=[[0,0.5],[1,0.5]];portConstraint=eastwest;rotatable=0;whiteSpace=wrap;html=1;" parent="PFFg62EAD7WfUakyWB93-50" vertex="1">
          <mxGeometry y="30" width="270" height="30" as="geometry" />
        </mxCell>
        <mxCell id="Ei9wnKq6K-vs5kYd-QN4-5" value="+getNome(): String" style="text;strokeColor=none;fillColor=none;align=left;verticalAlign=middle;spacingLeft=4;spacingRight=4;overflow=hidden;points=[[0,0.5],[1,0.5]];portConstraint=eastwest;rotatable=0;whiteSpace=wrap;html=1;" vertex="1" parent="PFFg62EAD7WfUakyWB93-50">
          <mxGeometry y="60" width="270" height="30" as="geometry" />
        </mxCell>
        <mxCell id="Ei9wnKq6K-vs5kYd-QN4-6" value="+getLunghezza(): int" style="text;strokeColor=none;fillColor=none;align=left;verticalAlign=middle;spacingLeft=4;spacingRight=4;overflow=hidden;points=[[0,0.5],[1,0.5]];portConstraint=eastwest;rotatable=0;whiteSpace=wrap;html=1;" vertex="1" parent="PFFg62EAD7WfUakyWB93-50">
          <mxGeometry y="90" width="270" height="30" as="geometry" />
        </mxCell>
        <mxCell id="Ei9wnKq6K-vs5kYd-QN4-7" value="+getStato(): boolean[]" style="text;strokeColor=none;fillColor=none;align=left;verticalAlign=middle;spacingLeft=4;spacingRight=4;overflow=hidden;points=[[0,0.5],[1,0.5]];portConstraint=eastwest;rotatable=0;whiteSpace=wrap;html=1;" vertex="1" parent="PFFg62EAD7WfUakyWB93-50">
          <mxGeometry y="120" width="270" height="30" as="geometry" />
        </mxCell>
        <mxCell id="Ei9wnKq6K-vs5kYd-QN4-8" value="+getX(): int" style="text;strokeColor=none;fillColor=none;align=left;verticalAlign=middle;spacingLeft=4;spacingRight=4;overflow=hidden;points=[[0,0.5],[1,0.5]];portConstraint=eastwest;rotatable=0;whiteSpace=wrap;html=1;" vertex="1" parent="PFFg62EAD7WfUakyWB93-50">
          <mxGeometry y="150" width="270" height="30" as="geometry" />
        </mxCell>
        <mxCell id="Ei9wnKq6K-vs5kYd-QN4-9" value="+getY(): int" style="text;strokeColor=none;fillColor=none;align=left;verticalAlign=middle;spacingLeft=4;spacingRight=4;overflow=hidden;points=[[0,0.5],[1,0.5]];portConstraint=eastwest;rotatable=0;whiteSpace=wrap;html=1;" vertex="1" parent="PFFg62EAD7WfUakyWB93-50">
          <mxGeometry y="180" width="270" height="30" as="geometry" />
        </mxCell>
        <mxCell id="Ei9wnKq6K-vs5kYd-QN4-10" value="+getOrientamento(): PuntiCardinali" style="text;strokeColor=none;fillColor=none;align=left;verticalAlign=middle;spacingLeft=4;spacingRight=4;overflow=hidden;points=[[0,0.5],[1,0.5]];portConstraint=eastwest;rotatable=0;whiteSpace=wrap;html=1;" vertex="1" parent="PFFg62EAD7WfUakyWB93-50">
          <mxGeometry y="210" width="270" height="30" as="geometry" />
        </mxCell>
        <mxCell id="Ei9wnKq6K-vs5kYd-QN4-11" value="+colpita(int): void" style="text;strokeColor=none;fillColor=none;align=left;verticalAlign=middle;spacingLeft=4;spacingRight=4;overflow=hidden;points=[[0,0.5],[1,0.5]];portConstraint=eastwest;rotatable=0;whiteSpace=wrap;html=1;" vertex="1" parent="PFFg62EAD7WfUakyWB93-50">
          <mxGeometry y="240" width="270" height="30" as="geometry" />
        </mxCell>
        <mxCell id="Ei9wnKq6K-vs5kYd-QN4-12" value="+eAffondata(): boolean" style="text;strokeColor=none;fillColor=none;align=left;verticalAlign=middle;spacingLeft=4;spacingRight=4;overflow=hidden;points=[[0,0.5],[1,0.5]];portConstraint=eastwest;rotatable=0;whiteSpace=wrap;html=1;" vertex="1" parent="PFFg62EAD7WfUakyWB93-50">
          <mxGeometry y="270" width="270" height="30" as="geometry" />
        </mxCell>
        <mxCell id="PFFg62EAD7WfUakyWB93-53" value="Gioco" style="swimlane;fontStyle=0;childLayout=stackLayout;horizontal=1;startSize=30;horizontalStack=0;resizeParent=1;resizeParentMax=0;resizeLast=0;collapsible=1;marginBottom=0;whiteSpace=wrap;html=1;" parent="1" vertex="1">
          <mxGeometry x="960" y="270" width="220" height="240" as="geometry" />
        </mxCell>
        <mxCell id="PFFg62EAD7WfUakyWB93-54" value="-griglia1: Griglia" style="text;strokeColor=none;fillColor=none;align=left;verticalAlign=middle;spacingLeft=4;spacingRight=4;overflow=hidden;points=[[0,0.5],[1,0.5]];portConstraint=eastwest;rotatable=0;whiteSpace=wrap;html=1;" parent="PFFg62EAD7WfUakyWB93-53" vertex="1">
          <mxGeometry y="30" width="220" height="30" as="geometry" />
        </mxCell>
        <mxCell id="PFFg62EAD7WfUakyWB93-55" value="-griglia2: Griglia" style="text;strokeColor=none;fillColor=none;align=left;verticalAlign=middle;spacingLeft=4;spacingRight=4;overflow=hidden;points=[[0,0.5],[1,0.5]];portConstraint=eastwest;rotatable=0;whiteSpace=wrap;html=1;" parent="PFFg62EAD7WfUakyWB93-53" vertex="1">
          <mxGeometry y="60" width="220" height="30" as="geometry" />
        </mxCell>
        <mxCell id="PFFg62EAD7WfUakyWB93-56" value="-turnoGiocatore: int" style="text;strokeColor=none;fillColor=none;align=left;verticalAlign=middle;spacingLeft=4;spacingRight=4;overflow=hidden;points=[[0,0.5],[1,0.5]];portConstraint=eastwest;rotatable=0;whiteSpace=wrap;html=1;" parent="PFFg62EAD7WfUakyWB93-53" vertex="1">
          <mxGeometry y="90" width="220" height="30" as="geometry" />
        </mxCell>
        <mxCell id="PFFg62EAD7WfUakyWB93-57" value="" style="swimlane;fontStyle=0;childLayout=stackLayout;horizontal=1;startSize=30;horizontalStack=0;resizeParent=1;resizeParentMax=0;resizeLast=0;collapsible=1;marginBottom=0;whiteSpace=wrap;html=1;" parent="PFFg62EAD7WfUakyWB93-53" vertex="1">
          <mxGeometry y="120" width="220" height="120" as="geometry" />
        </mxCell>
        <mxCell id="PFFg62EAD7WfUakyWB93-58" value="+avviaPartita(): void" style="text;strokeColor=none;fillColor=none;align=left;verticalAlign=middle;spacingLeft=4;spacingRight=4;overflow=hidden;points=[[0,0.5],[1,0.5]];portConstraint=eastwest;rotatable=0;whiteSpace=wrap;html=1;" parent="PFFg62EAD7WfUakyWB93-57" vertex="1">
          <mxGeometry y="30" width="220" height="30" as="geometry" />
        </mxCell>
        <mxCell id="PFFg62EAD7WfUakyWB93-59" value="+controllaVittoria(): boolean" style="text;strokeColor=none;fillColor=none;align=left;verticalAlign=middle;spacingLeft=4;spacingRight=4;overflow=hidden;points=[[0,0.5],[1,0.5]];portConstraint=eastwest;rotatable=0;whiteSpace=wrap;html=1;" parent="PFFg62EAD7WfUakyWB93-57" vertex="1">
          <mxGeometry y="60" width="220" height="30" as="geometry" />
        </mxCell>
        <mxCell id="PFFg62EAD7WfUakyWB93-60" value="+cambiaTurno(): void" style="text;strokeColor=none;fillColor=none;align=left;verticalAlign=middle;spacingLeft=4;spacingRight=4;overflow=hidden;points=[[0,0.5],[1,0.5]];portConstraint=eastwest;rotatable=0;whiteSpace=wrap;html=1;" parent="PFFg62EAD7WfUakyWB93-57" vertex="1">
          <mxGeometry y="90" width="220" height="30" as="geometry" />
        </mxCell>
        <mxCell id="PFFg62EAD7WfUakyWB93-61" value="GestoreAccesso" style="swimlane;fontStyle=0;childLayout=stackLayout;horizontal=1;startSize=30;horizontalStack=0;resizeParent=1;resizeParentMax=0;resizeLast=0;collapsible=1;marginBottom=0;whiteSpace=wrap;html=1;" parent="1" vertex="1">
          <mxGeometry x="940" y="640" width="240" height="180" as="geometry" />
        </mxCell>
        <mxCell id="PFFg62EAD7WfUakyWB93-62" value="-fileGiocatori: String" style="text;strokeColor=none;fillColor=none;align=left;verticalAlign=middle;spacingLeft=4;spacingRight=4;overflow=hidden;points=[[0,0.5],[1,0.5]];portConstraint=eastwest;rotatable=0;whiteSpace=wrap;html=1;" parent="PFFg62EAD7WfUakyWB93-61" vertex="1">
          <mxGeometry y="30" width="240" height="30" as="geometry" />
        </mxCell>
        <mxCell id="PFFg62EAD7WfUakyWB93-65" value="" style="swimlane;fontStyle=0;childLayout=stackLayout;horizontal=1;startSize=30;horizontalStack=0;resizeParent=1;resizeParentMax=0;resizeLast=0;collapsible=1;marginBottom=0;whiteSpace=wrap;html=1;" parent="PFFg62EAD7WfUakyWB93-61" vertex="1">
          <mxGeometry y="60" width="240" height="120" as="geometry" />
        </mxCell>
        <mxCell id="PFFg62EAD7WfUakyWB93-66" value="+registraGiocatore(String): void" style="text;strokeColor=none;fillColor=none;align=left;verticalAlign=middle;spacingLeft=4;spacingRight=4;overflow=hidden;points=[[0,0.5],[1,0.5]];portConstraint=eastwest;rotatable=0;whiteSpace=wrap;html=1;" parent="PFFg62EAD7WfUakyWB93-65" vertex="1">
          <mxGeometry y="30" width="240" height="30" as="geometry" />
        </mxCell>
        <mxCell id="PFFg62EAD7WfUakyWB93-67" value="+accediGiocatore(String): void" style="text;strokeColor=none;fillColor=none;align=left;verticalAlign=middle;spacingLeft=4;spacingRight=4;overflow=hidden;points=[[0,0.5],[1,0.5]];portConstraint=eastwest;rotatable=0;whiteSpace=wrap;html=1;" parent="PFFg62EAD7WfUakyWB93-65" vertex="1">
          <mxGeometry y="60" width="240" height="30" as="geometry" />
        </mxCell>
        <mxCell id="PFFg62EAD7WfUakyWB93-68" value="+salvaVittoria(String): void" style="text;strokeColor=none;fillColor=none;align=left;verticalAlign=middle;spacingLeft=4;spacingRight=4;overflow=hidden;points=[[0,0.5],[1,0.5]];portConstraint=eastwest;rotatable=0;whiteSpace=wrap;html=1;" parent="PFFg62EAD7WfUakyWB93-65" vertex="1">
          <mxGeometry y="90" width="240" height="30" as="geometry" />
        </mxCell>
        <mxCell id="PFFg62EAD7WfUakyWB93-69" value="Griglia" style="swimlane;fontStyle=0;childLayout=stackLayout;horizontal=1;startSize=30;horizontalStack=0;resizeParent=1;resizeParentMax=0;resizeLast=0;collapsible=1;marginBottom=0;whiteSpace=wrap;html=1;" parent="1" vertex="1">
          <mxGeometry x="560" y="270" width="240" height="180" as="geometry" />
        </mxCell>
        <mxCell id="PFFg62EAD7WfUakyWB93-70" value="-matrice: Casella[][]" style="text;strokeColor=none;fillColor=none;align=left;verticalAlign=middle;spacingLeft=4;spacingRight=4;overflow=hidden;points=[[0,0.5],[1,0.5]];portConstraint=eastwest;rotatable=0;whiteSpace=wrap;html=1;" parent="PFFg62EAD7WfUakyWB93-69" vertex="1">
          <mxGeometry y="30" width="240" height="30" as="geometry" />
        </mxCell>
        <mxCell id="PFFg62EAD7WfUakyWB93-71" value="" style="swimlane;fontStyle=0;childLayout=stackLayout;horizontal=1;startSize=30;horizontalStack=0;resizeParent=1;resizeParentMax=0;resizeLast=0;collapsible=1;marginBottom=0;whiteSpace=wrap;html=1;" parent="PFFg62EAD7WfUakyWB93-69" vertex="1">
          <mxGeometry y="60" width="240" height="120" as="geometry" />
        </mxCell>
        <mxCell id="PFFg62EAD7WfUakyWB93-72" value="+posizioneNave(Nave, int, int, String):&amp;nbsp;" style="text;strokeColor=none;fillColor=none;align=left;verticalAlign=middle;spacingLeft=4;spacingRight=4;overflow=hidden;points=[[0,0.5],[1,0.5]];portConstraint=eastwest;rotatable=0;whiteSpace=wrap;html=1;" parent="PFFg62EAD7WfUakyWB93-71" vertex="1">
          <mxGeometry y="30" width="240" height="30" as="geometry" />
        </mxCell>
        <mxCell id="PFFg62EAD7WfUakyWB93-73" value="+riceviColpo(int, int): void" style="text;strokeColor=none;fillColor=none;align=left;verticalAlign=middle;spacingLeft=4;spacingRight=4;overflow=hidden;points=[[0,0.5],[1,0.5]];portConstraint=eastwest;rotatable=0;whiteSpace=wrap;html=1;" parent="PFFg62EAD7WfUakyWB93-71" vertex="1">
          <mxGeometry y="60" width="240" height="30" as="geometry" />
        </mxCell>
        <mxCell id="PFFg62EAD7WfUakyWB93-74" value="+verificaAffondamento(Nave): boolean" style="text;strokeColor=none;fillColor=none;align=left;verticalAlign=middle;spacingLeft=4;spacingRight=4;overflow=hidden;points=[[0,0.5],[1,0.5]];portConstraint=eastwest;rotatable=0;whiteSpace=wrap;html=1;" parent="PFFg62EAD7WfUakyWB93-71" vertex="1">
          <mxGeometry y="90" width="240" height="30" as="geometry" />
        </mxCell>
        <mxCell id="PFFg62EAD7WfUakyWB93-75" value="Casella" style="swimlane;fontStyle=0;childLayout=stackLayout;horizontal=1;startSize=30;horizontalStack=0;resizeParent=1;resizeParentMax=0;resizeLast=0;collapsible=1;marginBottom=0;whiteSpace=wrap;html=1;" parent="1" vertex="1">
          <mxGeometry x="184" y="610" width="230" height="120" as="geometry" />
        </mxCell>
        <mxCell id="PFFg62EAD7WfUakyWB93-77" value="-stato: String" style="text;strokeColor=none;fillColor=none;align=left;verticalAlign=middle;spacingLeft=4;spacingRight=4;overflow=hidden;points=[[0,0.5],[1,0.5]];portConstraint=eastwest;rotatable=0;whiteSpace=wrap;html=1;" parent="PFFg62EAD7WfUakyWB93-75" vertex="1">
          <mxGeometry y="30" width="230" height="30" as="geometry" />
        </mxCell>
        <mxCell id="PFFg62EAD7WfUakyWB93-78" value="" style="swimlane;fontStyle=0;childLayout=stackLayout;horizontal=1;startSize=30;horizontalStack=0;resizeParent=1;resizeParentMax=0;resizeLast=0;collapsible=1;marginBottom=0;whiteSpace=wrap;html=1;" parent="PFFg62EAD7WfUakyWB93-75" vertex="1">
          <mxGeometry y="60" width="230" height="60" as="geometry" />
        </mxCell>
        <mxCell id="PFFg62EAD7WfUakyWB93-79" value="+aggiornaStato(RisultatoColpo): void" style="text;strokeColor=default;fillColor=none;align=left;verticalAlign=middle;spacingLeft=4;spacingRight=4;overflow=hidden;points=[[0,0.5],[1,0.5]];portConstraint=eastwest;rotatable=0;whiteSpace=wrap;html=1;" parent="PFFg62EAD7WfUakyWB93-78" vertex="1">
          <mxGeometry y="30" width="230" height="30" as="geometry" />
        </mxCell>
        <mxCell id="PFFg62EAD7WfUakyWB93-92" value="" style="endArrow=classic;html=1;rounded=0;entryX=1;entryY=0.5;entryDx=0;entryDy=0;exitX=0;exitY=0.089;exitDx=0;exitDy=0;exitPerimeter=0;" parent="1" source="PFFg62EAD7WfUakyWB93-69" target="PFFg62EAD7WfUakyWB93-14" edge="1">
          <mxGeometry width="50" height="50" relative="1" as="geometry">
            <mxPoint x="630" y="600" as="sourcePoint" />
            <mxPoint x="680" y="550" as="targetPoint" />
            <Array as="points">
              <mxPoint x="500" y="286" />
              <mxPoint x="500" y="345" />
            </Array>
          </mxGeometry>
        </mxCell>
        <mxCell id="PFFg62EAD7WfUakyWB93-94" value="" style="endArrow=classic;html=1;rounded=0;entryX=0;entryY=0.5;entryDx=0;entryDy=0;exitX=0.999;exitY=0.112;exitDx=0;exitDy=0;exitPerimeter=0;" parent="1" source="PFFg62EAD7WfUakyWB93-69" target="PFFg62EAD7WfUakyWB93-54" edge="1">
          <mxGeometry width="50" height="50" relative="1" as="geometry">
            <mxPoint x="630" y="600" as="sourcePoint" />
            <mxPoint x="680" y="550" as="targetPoint" />
            <Array as="points">
              <mxPoint x="820" y="290" />
              <mxPoint x="840" y="290" />
              <mxPoint x="840" y="315" />
            </Array>
          </mxGeometry>
        </mxCell>
        <mxCell id="PFFg62EAD7WfUakyWB93-95" value="" style="endArrow=classic;html=1;rounded=0;entryX=0;entryY=0.5;entryDx=0;entryDy=0;exitX=1;exitY=0.112;exitDx=0;exitDy=0;exitPerimeter=0;" parent="1" source="PFFg62EAD7WfUakyWB93-69" target="PFFg62EAD7WfUakyWB93-55" edge="1">
          <mxGeometry width="50" height="50" relative="1" as="geometry">
            <mxPoint x="800" y="290" as="sourcePoint" />
            <mxPoint x="860" y="340" as="targetPoint" />
            <Array as="points">
              <mxPoint x="840" y="290" />
              <mxPoint x="840" y="345" />
            </Array>
          </mxGeometry>
        </mxCell>
        <mxCell id="PFFg62EAD7WfUakyWB93-96" value="Main" style="swimlane;fontStyle=0;childLayout=stackLayout;horizontal=1;startSize=30;horizontalStack=0;resizeParent=1;resizeParentMax=0;resizeLast=0;collapsible=1;marginBottom=0;whiteSpace=wrap;html=1;" parent="1" vertex="1">
          <mxGeometry x="1330" y="270" width="140" height="60" as="geometry" />
        </mxCell>
        <mxCell id="PFFg62EAD7WfUakyWB93-97" value="+main(): void" style="text;strokeColor=none;fillColor=none;align=left;verticalAlign=middle;spacingLeft=4;spacingRight=4;overflow=hidden;points=[[0,0.5],[1,0.5]];portConstraint=eastwest;rotatable=0;whiteSpace=wrap;html=1;" parent="PFFg62EAD7WfUakyWB93-96" vertex="1">
          <mxGeometry y="30" width="140" height="30" as="geometry" />
        </mxCell>
        <mxCell id="PFFg62EAD7WfUakyWB93-103" value="" style="endArrow=classic;html=1;rounded=0;entryX=0;entryY=0.5;entryDx=0;entryDy=0;exitX=0.998;exitY=0.067;exitDx=0;exitDy=0;exitPerimeter=0;" parent="1" source="PFFg62EAD7WfUakyWB93-1" target="PFFg62EAD7WfUakyWB93-58" edge="1">
          <mxGeometry width="50" height="50" relative="1" as="geometry">
            <mxPoint x="820" y="240" as="sourcePoint" />
            <mxPoint x="870" y="190" as="targetPoint" />
            <Array as="points">
              <mxPoint x="880" />
              <mxPoint x="880" y="435" />
            </Array>
          </mxGeometry>
        </mxCell>
        <mxCell id="PFFg62EAD7WfUakyWB93-104" value="" style="endArrow=classic;html=1;rounded=0;entryX=0;entryY=0.5;entryDx=0;entryDy=0;exitX=0.5;exitY=0;exitDx=0;exitDy=0;" parent="1" source="PFFg62EAD7WfUakyWB93-61" target="PFFg62EAD7WfUakyWB93-58" edge="1">
          <mxGeometry width="50" height="50" relative="1" as="geometry">
            <mxPoint x="620" y="600" as="sourcePoint" />
            <mxPoint x="670" y="550" as="targetPoint" />
            <Array as="points">
              <mxPoint x="1060" y="616" />
              <mxPoint x="940" y="616" />
              <mxPoint x="940" y="520" />
              <mxPoint x="940" y="435" />
            </Array>
          </mxGeometry>
        </mxCell>
        <mxCell id="PFFg62EAD7WfUakyWB93-106" value="" style="endArrow=classic;html=1;rounded=0;exitX=0.5;exitY=0;exitDx=0;exitDy=0;entryX=1;entryY=0.5;entryDx=0;entryDy=0;" parent="1" source="PFFg62EAD7WfUakyWB93-46" target="PFFg62EAD7WfUakyWB93-72" edge="1">
          <mxGeometry width="50" height="50" relative="1" as="geometry">
            <mxPoint x="1050" y="570" as="sourcePoint" />
            <mxPoint x="870" y="490" as="targetPoint" />
            <Array as="points">
              <mxPoint x="705" y="600" />
              <mxPoint x="860" y="600" />
              <mxPoint x="860" y="375" />
            </Array>
          </mxGeometry>
        </mxCell>
        <mxCell id="PFFg62EAD7WfUakyWB93-107" value="" style="endArrow=classic;html=1;rounded=0;entryX=0;entryY=0.25;entryDx=0;entryDy=0;exitX=1.001;exitY=0.066;exitDx=0;exitDy=0;exitPerimeter=0;" parent="1" source="PFFg62EAD7WfUakyWB93-53" target="PFFg62EAD7WfUakyWB93-96" edge="1">
          <mxGeometry width="50" height="50" relative="1" as="geometry">
            <mxPoint x="1210" y="350" as="sourcePoint" />
            <mxPoint x="1260" y="300" as="targetPoint" />
          </mxGeometry>
        </mxCell>
        <mxCell id="PFFg62EAD7WfUakyWB93-108" value="" style="endArrow=classic;html=1;rounded=0;entryX=0;entryY=0.5;entryDx=0;entryDy=0;exitX=0.999;exitY=0.082;exitDx=0;exitDy=0;exitPerimeter=0;" parent="1" source="PFFg62EAD7WfUakyWB93-75" target="PFFg62EAD7WfUakyWB93-70" edge="1">
          <mxGeometry width="50" height="50" relative="1" as="geometry">
            <mxPoint x="430" y="570" as="sourcePoint" />
            <mxPoint x="480" y="520" as="targetPoint" />
            <Array as="points">
              <mxPoint x="520" y="620" />
              <mxPoint x="520" y="315" />
              <mxPoint x="530" y="315" />
            </Array>
          </mxGeometry>
        </mxCell>
        <mxCell id="PFFg62EAD7WfUakyWB93-156" value="RisultatoColpo" style="swimlane;fontStyle=0;childLayout=stackLayout;horizontal=1;startSize=30;horizontalStack=0;resizeParent=1;resizeParentMax=0;resizeLast=0;collapsible=1;marginBottom=0;whiteSpace=wrap;html=1;" parent="1" vertex="1">
          <mxGeometry x="-80" y="700" width="140" height="120" as="geometry" />
        </mxCell>
        <mxCell id="PFFg62EAD7WfUakyWB93-161" value="-COLPITO" style="text;strokeColor=none;fillColor=none;align=left;verticalAlign=middle;spacingLeft=4;spacingRight=4;overflow=hidden;points=[[0,0.5],[1,0.5]];portConstraint=eastwest;rotatable=0;whiteSpace=wrap;html=1;" parent="PFFg62EAD7WfUakyWB93-156" vertex="1">
          <mxGeometry y="30" width="140" height="30" as="geometry" />
        </mxCell>
        <mxCell id="PFFg62EAD7WfUakyWB93-160" value="-AFFONDATO" style="text;strokeColor=none;fillColor=none;align=left;verticalAlign=middle;spacingLeft=4;spacingRight=4;overflow=hidden;points=[[0,0.5],[1,0.5]];portConstraint=eastwest;rotatable=0;whiteSpace=wrap;html=1;" parent="PFFg62EAD7WfUakyWB93-156" vertex="1">
          <mxGeometry y="60" width="140" height="30" as="geometry" />
        </mxCell>
        <mxCell id="PFFg62EAD7WfUakyWB93-157" value="-MANCATO" style="text;strokeColor=none;fillColor=none;align=left;verticalAlign=middle;spacingLeft=4;spacingRight=4;overflow=hidden;points=[[0,0.5],[1,0.5]];portConstraint=eastwest;rotatable=0;whiteSpace=wrap;html=1;" parent="PFFg62EAD7WfUakyWB93-156" vertex="1">
          <mxGeometry y="90" width="140" height="30" as="geometry" />
        </mxCell>
        <mxCell id="PFFg62EAD7WfUakyWB93-163" value="" style="endArrow=classic;html=1;rounded=0;entryX=0;entryY=0.5;entryDx=0;entryDy=0;exitX=1.007;exitY=0.128;exitDx=0;exitDy=0;exitPerimeter=0;" parent="1" source="PFFg62EAD7WfUakyWB93-156" target="PFFg62EAD7WfUakyWB93-79" edge="1">
          <mxGeometry width="50" height="50" relative="1" as="geometry">
            <mxPoint x="340" y="810" as="sourcePoint" />
            <mxPoint x="390" y="760" as="targetPoint" />
          </mxGeometry>
        </mxCell>
        <mxCell id="Ei9wnKq6K-vs5kYd-QN4-13" value="PuntiCardinali" style="swimlane;fontStyle=0;childLayout=stackLayout;horizontal=1;startSize=30;horizontalStack=0;resizeParent=1;resizeParentMax=0;resizeLast=0;collapsible=1;marginBottom=0;whiteSpace=wrap;html=1;" vertex="1" parent="1">
          <mxGeometry x="950" y="930" width="240" height="150" as="geometry" />
        </mxCell>
        <mxCell id="Ei9wnKq6K-vs5kYd-QN4-14" value="-NORD" style="text;strokeColor=none;fillColor=none;align=left;verticalAlign=middle;spacingLeft=4;spacingRight=4;overflow=hidden;points=[[0,0.5],[1,0.5]];portConstraint=eastwest;rotatable=0;whiteSpace=wrap;html=1;" vertex="1" parent="Ei9wnKq6K-vs5kYd-QN4-13">
          <mxGeometry y="30" width="240" height="30" as="geometry" />
        </mxCell>
        <mxCell id="Ei9wnKq6K-vs5kYd-QN4-19" value="-EST" style="text;strokeColor=none;fillColor=none;align=left;verticalAlign=middle;spacingLeft=4;spacingRight=4;overflow=hidden;points=[[0,0.5],[1,0.5]];portConstraint=eastwest;rotatable=0;whiteSpace=wrap;html=1;" vertex="1" parent="Ei9wnKq6K-vs5kYd-QN4-13">
          <mxGeometry y="60" width="240" height="30" as="geometry" />
        </mxCell>
        <mxCell id="Ei9wnKq6K-vs5kYd-QN4-20" value="-SUD" style="text;strokeColor=none;fillColor=none;align=left;verticalAlign=middle;spacingLeft=4;spacingRight=4;overflow=hidden;points=[[0,0.5],[1,0.5]];portConstraint=eastwest;rotatable=0;whiteSpace=wrap;html=1;" vertex="1" parent="Ei9wnKq6K-vs5kYd-QN4-13">
          <mxGeometry y="90" width="240" height="30" as="geometry" />
        </mxCell>
        <mxCell id="Ei9wnKq6K-vs5kYd-QN4-21" value="-OVEST" style="text;strokeColor=none;fillColor=none;align=left;verticalAlign=middle;spacingLeft=4;spacingRight=4;overflow=hidden;points=[[0,0.5],[1,0.5]];portConstraint=eastwest;rotatable=0;whiteSpace=wrap;html=1;" vertex="1" parent="Ei9wnKq6K-vs5kYd-QN4-13">
          <mxGeometry y="120" width="240" height="30" as="geometry" />
        </mxCell>
        <mxCell id="Ei9wnKq6K-vs5kYd-QN4-22" value="" style="endArrow=classic;html=1;rounded=0;entryX=1;entryY=0.5;entryDx=0;entryDy=0;exitX=-0.008;exitY=0.106;exitDx=0;exitDy=0;exitPerimeter=0;" edge="1" parent="1" source="Ei9wnKq6K-vs5kYd-QN4-13" target="Ei9wnKq6K-vs5kYd-QN4-3">
          <mxGeometry width="50" height="50" relative="1" as="geometry">
            <mxPoint x="900" y="1010" as="sourcePoint" />
            <mxPoint x="950" y="960" as="targetPoint" />
            <Array as="points">
              <mxPoint x="890" y="946" />
              <mxPoint x="890" y="865" />
            </Array>
          </mxGeometry>
        </mxCell>
      </root>
    </mxGraphModel>
  </diagram>
</mxfile>
